<?xml version="1.0" standalone="no"?>
<!DOCTYPE svg PUBLIC "-//W3C//DTD SVG 20010904//EN"
 "http://www.w3.org/TR/2001/REC-SVG-20010904/DTD/svg10.dtd">
<svg version="1.0" xmlns="http://www.w3.org/2000/svg"
 width="565.000000pt" height="565.000000pt" viewBox="0 0 565.000000 565.000000"
 preserveAspectRatio="xMidYMid meet">
<metadata>
Created by potrace 1.14, written by Peter Selinger 2001-2017
</metadata>
<g transform="translate(0.000000,565.000000) scale(0.100000,-0.100000)"
fill="#000000" stroke="none">
<path d="M2745 5640 c-286 -29 -543 -116 -760 -258 -139 -90 -257 -195 -467
-414 -528 -552 -640 -648 -791 -682 -62 -14 -69 -31 -39 -99 42 -95 141 -171
240 -184 26 -3 55 -10 66 -15 18 -10 18 -65 15 -1966 -3 -1683 -1 -1957 11
-1954 8 2 205 198 439 435 234 238 642 650 907 917 264 267 552 559 640 649
233 239 534 522 654 614 88 67 195 118 330 159 153 45 201 49 595 54 209 3
390 7 403 10 l22 4 0 380 c0 209 -3 380 -6 380 -4 0 -59 -55 -124 -122 l-117
-122 -518 2 c-285 2 -522 5 -527 8 -21 13 31 182 99 319 81 163 210 318 340
411 138 99 331 165 493 168 l85 1 6 -54 c7 -53 10 -57 126 -172 65 -66 124
-119 131 -119 18 0 18 1319 0 1325 -7 2 -270 6 -584 7 l-571 3 -46 37 c-62 52
-190 130 -273 168 -79 36 -255 84 -364 99 -115 15 -315 21 -415 11z m844 -539
c12 -8 10 -18 -10 -66 -38 -89 -41 -90 -205 -56 -151 31 -174 38 -174 52 0 15
39 26 145 39 55 6 127 18 160 25 33 7 62 13 65 14 3 0 11 -3 19 -8z m849 -178
c4 -26 19 -21 -238 -74 -113 -23 -223 -45 -245 -50 -22 -5 -65 -13 -95 -18
-47 -8 -161 -31 -353 -71 -76 -16 -93 -13 -121 20 -40 48 -28 60 74 74 89 13
458 70 680 106 135 21 256 38 270 37 17 -1 26 -9 28 -24z m0 -131 c2 -12 -3
-24 -10 -26 -7 -2 -53 -15 -103 -29 -49 -14 -164 -48 -255 -75 -91 -27 -248
-73 -349 -103 l-184 -53 -28 32 c-35 39 -38 70 -6 76 22 5 134 31 297 68 194
44 262 59 390 87 74 17 149 35 165 40 48 16 80 9 83 -17z m-3 -131 c0 -25 -36
-42 -410 -191 -66 -26 -173 -71 -238 -99 -65 -28 -125 -51 -132 -51 -7 0 -25
19 -40 42 -20 31 -25 46 -18 57 11 17 173 72 563 191 58 18 137 43 175 55 84
28 100 27 100 -4z"/>
</g>
</svg>
